<svg width="227" height="50" viewBox="0 0 227 50" fill="none" xmlns="http://www.w3.org/2000/svg">
<path d="M19.7551 29.2021C14.0674 27.0589 10.019 21.5439 10.019 15.0784C10.019 6.75083 16.7351 0 25.0197 0C28.4705 0 31.6491 1.17127 34.1837 3.13987C33.5132 3.04701 32.8284 2.99902 32.1325 2.99902C23.9243 2.99902 17.2703 9.67526 17.2703 17.9108C17.2703 19.9792 17.69 21.9493 18.4487 23.7399C18.3655 24.1628 18.322 24.6 18.322 25.0474C18.322 26.6158 18.8575 28.0587 19.7551 29.2021Z" fill="#A51A5D"/>
<path d="M46.9944 32.1002C46.9944 39.5566 41.4296 45.7418 34.14 46.9004C37.783 44.1285 40.1307 39.7739 40.1307 34.8771C40.1307 28.3363 35.9421 22.7629 30.0727 20.6364C28.9519 19.3448 27.3472 18.4869 25.542 18.3471C27.4166 17.5482 29.4862 17.1051 31.6617 17.1051C40.1297 17.1051 46.9944 23.8186 46.9944 32.1002Z" fill="#FFDE00"/>
<path d="M31.6936 25.6106C31.709 25.4246 31.7168 25.2366 31.7168 25.0467C31.7168 23.2948 31.0486 21.6994 29.954 20.5032C35.9515 22.5538 40.2965 28.1213 40.2965 34.7657C40.2965 43.17 33.4318 49.983 24.9638 49.983C21.6073 49.983 18.5027 48.9126 15.9777 47.097C16.5827 47.169 17.1986 47.2061 17.8232 47.2061C26.2913 47.2061 33.156 40.3931 33.156 31.9889C33.156 29.6922 32.6281 27.5376 31.6936 25.6106Z" fill="#32BA00"/>
<path d="M31.698 25.5638C31.56 27.3861 30.6978 29.0052 29.3994 30.1321C27.3073 35.9737 21.7125 40.1539 15.1392 40.1539C10.2098 40.1539 5.83071 37.8031 3.06641 34.1637C4.05016 41.5577 10.3939 47.2627 18.0729 47.2627C26.434 47.2627 33.2119 40.4995 33.2119 32.1565C33.2119 29.7929 32.6679 27.556 31.698 25.5638Z" fill="#5EBBE7"/>
<path d="M0 25.102C0 21.5926 1.19932 18.3627 3.2113 15.7981C3.10138 16.5324 3.04441 17.2839 3.04441 18.0488C3.04441 26.3917 9.8224 33.1549 18.1835 33.1549C20.4635 33.1549 22.6258 32.652 24.565 31.7513C24.7152 31.7614 24.8668 31.7665 25.0196 31.7665C26.7076 31.7665 28.2498 31.1399 29.4278 30.1059C27.3584 35.9896 21.7425 40.2082 15.139 40.2082C6.77799 40.2082 0 33.4449 0 25.102Z" fill="#322783"/>
<path d="M2.98889 18.1606C2.98889 10.6084 8.54301 4.35061 15.7978 3.2323C12.2784 5.99837 10.0187 10.2889 10.0187 15.1061C10.0187 21.5581 14.0725 27.0654 19.7772 29.2304C20.9473 30.7045 22.7221 31.674 24.725 31.7609C22.731 32.7258 20.4928 33.2668 18.1279 33.2668C9.76687 33.2668 2.98889 26.5036 2.98889 18.1606Z" fill="#662583"/>
<path d="M49.9838 25.0732C49.9838 28.5842 48.7849 31.8149 46.7744 34.3775C46.875 33.6782 46.927 32.9634 46.927 32.2367C46.927 23.9101 40.0966 17.16 31.6708 17.16C29.5496 17.16 27.5296 17.5878 25.6942 18.3608C25.4724 18.3385 25.2473 18.3271 25.0196 18.3271C23.4148 18.3271 21.9418 18.8934 20.7883 19.8377C22.9069 14.0383 28.4167 9.74658 34.9001 9.74658C43.2185 9.74658 49.9838 16.7466 49.9838 25.0732Z" fill="#F29200"/>
<path d="M18.4299 23.8384C18.7223 22.2241 19.5896 20.8108 20.8112 19.8198C22.838 14.0032 28.3556 9.83084 34.8445 9.83084C39.8301 9.83084 44.2423 12.2939 46.9384 16.0734C46.0353 8.67431 39.7507 2.94421 32.1322 2.94421C23.8934 2.94421 17.2146 9.64531 17.2146 17.9115C17.2146 20.017 17.6479 22.0209 18.4299 23.8384Z" fill="#E40613"/>
<path d="M55.9818 18.9752C55.9818 18.8324 56.0976 18.7167 56.2403 18.7167H67.9815C68.1243 18.7167 68.24 18.8324 68.24 18.9752V21.6807C68.24 21.8235 68.1243 21.9392 67.9815 21.9392H64.3858C64.243 21.9392 64.1272 22.055 64.1272 22.1978V31.5086C64.1272 31.6514 64.0115 31.7672 63.8687 31.7672H60.3531C60.2103 31.7672 60.0946 31.6514 60.0946 31.5086V22.1978C60.0946 22.055 59.9788 21.9392 59.836 21.9392H56.2403C56.0976 21.9392 55.9818 21.8235 55.9818 21.6807V18.9752Z" fill="#662583"/>
<path d="M70.0916 18.9752C70.0916 18.8324 70.2074 18.7167 70.3502 18.7167H73.8658C74.0085 18.7167 74.1243 18.8324 74.1243 18.9752V23.0249C74.1243 23.1677 74.24 23.2835 74.3828 23.2835H78.2723C78.4151 23.2835 78.5308 23.1677 78.5308 23.0249V18.9752C78.5308 18.8324 78.6466 18.7167 78.7894 18.7167H82.3227C82.4655 18.7167 82.5813 18.8324 82.5813 18.9752V31.5086C82.5813 31.6514 82.4655 31.7672 82.3227 31.7672H78.7894C78.6466 31.7672 78.5308 31.6514 78.5308 31.5086V26.7468C78.5308 26.604 78.4151 26.4882 78.2723 26.4882H74.3828C74.24 26.4882 74.1243 26.604 74.1243 26.7468V31.5086C74.1243 31.6514 74.0085 31.7672 73.8658 31.7672H70.3502C70.2074 31.7672 70.0916 31.6514 70.0916 31.5086V18.9752Z" fill="#662583"/>
<path d="M85.2519 18.9752C85.2519 18.8324 85.3677 18.7167 85.5104 18.7167H95.8005C95.9433 18.7167 96.0591 18.8324 96.0591 18.9752V21.2445C96.0591 21.3873 95.9433 21.503 95.8005 21.503H89.552C89.4092 21.503 89.2935 21.6188 89.2935 21.7616V23.3187C89.2935 23.4615 89.4092 23.5772 89.552 23.5772H95.3109C95.4537 23.5772 95.5694 23.693 95.5694 23.8358V25.9804C95.5694 26.1232 95.4537 26.239 95.3109 26.239H89.552C89.4092 26.239 89.2935 26.3547 89.2935 26.4975V28.5531C89.2935 28.6959 89.4092 28.8117 89.552 28.8117H95.9964C96.1392 28.8117 96.2549 28.9274 96.2549 29.0702V31.5086C96.2549 31.6514 96.1392 31.7672 95.9964 31.7672H85.5104C85.3677 31.7672 85.2519 31.6514 85.2519 31.5086V18.9752Z" fill="#662583"/>
<path d="M104.507 18.9752C104.507 18.8324 104.623 18.7167 104.766 18.7167H111.21C112.67 18.7167 113.762 19.0639 114.486 19.7582C115.216 20.4526 115.581 21.4407 115.581 22.7226C115.581 24.0401 115.184 25.0698 114.388 25.8117C113.599 26.5535 112.391 26.9244 110.765 26.9244H108.816C108.673 26.9244 108.558 27.0402 108.558 27.183V31.5086C108.558 31.6514 108.442 31.7672 108.299 31.7672H104.766C104.623 31.7672 104.507 31.6514 104.507 31.5086V18.9752ZM108.558 24.022C108.558 24.1648 108.673 24.2805 108.816 24.2805H109.546C110.323 24.2805 110.869 24.147 111.184 23.8799C111.498 23.6069 111.656 23.2597 111.656 22.8384C111.656 22.4289 111.519 22.0817 111.246 21.7968C110.973 21.5119 110.46 21.3695 109.706 21.3695H108.816C108.673 21.3695 108.558 21.4853 108.558 21.628V24.022Z" fill="#662583"/>
<path d="M125.785 29.7977C125.752 29.688 125.651 29.6129 125.537 29.6129H121.33C121.215 29.6129 121.114 29.6885 121.082 29.7986L120.559 31.5814C120.526 31.6915 120.425 31.7672 120.311 31.7672H116.756C116.575 31.7672 116.45 31.5867 116.514 31.4177L121.225 18.8843C121.263 18.7835 121.359 18.7167 121.467 18.7167H125.506C125.614 18.7167 125.71 18.7835 125.748 18.8843L130.459 31.4177C130.522 31.5867 130.398 31.7672 130.217 31.7672H126.564C126.449 31.7672 126.348 31.692 126.316 31.5823L125.785 29.7977ZM124.534 26.7909C124.708 26.7909 124.832 26.6226 124.781 26.4564L123.69 22.9059C123.615 22.6622 123.27 22.6625 123.195 22.9063L122.111 26.4568C122.06 26.623 122.184 26.7909 122.358 26.7909H124.534Z" fill="#662583"/>
<path d="M132.05 18.9752C132.05 18.8324 132.166 18.7167 132.309 18.7167H135.833C135.976 18.7167 136.092 18.8324 136.092 18.9752V31.5086C136.092 31.6514 135.976 31.7672 135.833 31.7672H132.309C132.166 31.7672 132.05 31.6514 132.05 31.5086V18.9752Z" fill="#662583"/>
<path d="M139.021 18.9752C139.021 18.8324 139.136 18.7167 139.279 18.7167H142.649C142.735 18.7167 142.815 18.759 142.863 18.8298L147.228 25.2424C147.371 25.4528 147.7 25.3515 147.7 25.097V18.9752C147.7 18.8324 147.816 18.7167 147.959 18.7167H151.243C151.386 18.7167 151.501 18.8324 151.501 18.9752V31.5086C151.501 31.6514 151.386 31.7672 151.243 31.7672H147.837C147.751 31.7672 147.671 31.7249 147.623 31.6543L143.285 25.2933C143.142 25.0831 142.813 25.1845 142.813 25.4389V31.5086C142.813 31.6514 142.697 31.7672 142.554 31.7672H139.279C139.136 31.7672 139.021 31.6514 139.021 31.5086V18.9752Z" fill="#662583"/>
<path d="M153.264 18.9752C153.264 18.8324 153.38 18.7167 153.522 18.7167H165.264C165.406 18.7167 165.522 18.8324 165.522 18.9752V21.6807C165.522 21.8235 165.406 21.9392 165.264 21.9392H161.668C161.525 21.9392 161.409 22.055 161.409 22.1978V31.5086C161.409 31.6514 161.294 31.7672 161.151 31.7672H157.635C157.492 31.7672 157.377 31.6514 157.377 31.5086V22.1978C157.377 22.055 157.261 21.9392 157.118 21.9392H153.522C153.38 21.9392 153.264 21.8235 153.264 21.6807V18.9752Z" fill="#662583"/>
<path d="M173.498 18.9752C173.498 18.8324 173.614 18.7167 173.757 18.7167H179.49C180.671 18.7167 181.623 18.8769 182.347 19.1974C183.077 19.5179 183.679 19.9778 184.154 20.5772C184.629 21.1766 184.973 21.874 185.187 22.6692C185.401 23.4645 185.507 24.3072 185.507 25.1974C185.507 26.5921 185.347 27.6752 185.027 28.4467C184.712 29.2123 184.273 29.8562 183.709 30.3784C183.145 30.8948 182.54 31.239 181.893 31.4111C181.009 31.6485 180.208 31.7672 179.49 31.7672H173.757C173.614 31.7672 173.498 31.6514 173.498 31.5086V18.9752ZM177.79 21.6722C177.647 21.6722 177.531 21.7879 177.531 21.9307V28.5442C177.531 28.687 177.647 28.8028 177.79 28.8028H178.519C179.362 28.8028 179.961 28.7108 180.317 28.5268C180.674 28.3369 180.952 28.0105 181.154 27.5476C181.356 27.0787 181.457 26.322 181.457 25.2775C181.457 23.8947 181.231 22.9482 180.78 22.4378C180.329 21.9274 179.582 21.6722 178.537 21.6722H177.79Z" fill="#662583"/>
<path d="M187.626 18.9752C187.626 18.8324 187.742 18.7167 187.885 18.7167H198.175C198.317 18.7167 198.433 18.8324 198.433 18.9752V21.2445C198.433 21.3873 198.317 21.503 198.175 21.503H191.926C191.783 21.503 191.668 21.6188 191.668 21.7616V23.3187C191.668 23.4615 191.783 23.5772 191.926 23.5772H197.685C197.828 23.5772 197.944 23.693 197.944 23.8358V25.9804C197.944 26.1232 197.828 26.239 197.685 26.239H191.926C191.783 26.239 191.668 26.3547 191.668 26.4975V28.5531C191.668 28.6959 191.783 28.8117 191.926 28.8117H198.37C198.513 28.8117 198.629 28.9274 198.629 29.0702V31.5086C198.629 31.6514 198.513 31.7672 198.37 31.7672H187.885C187.742 31.7672 187.626 31.6514 187.626 31.5086V18.9752Z" fill="#662583"/>
<path d="M200.792 18.9752C200.792 18.8324 200.908 18.7167 201.051 18.7167H207.496C208.955 18.7167 210.047 19.0639 210.771 19.7582C211.501 20.4526 211.866 21.4407 211.866 22.7226C211.866 24.0401 211.469 25.0698 210.674 25.8117C209.884 26.5535 208.677 26.9244 207.05 26.9244H205.101C204.958 26.9244 204.843 27.0402 204.843 27.183V31.5086C204.843 31.6514 204.727 31.7672 204.584 31.7672H201.051C200.908 31.7672 200.792 31.6514 200.792 31.5086V18.9752ZM204.843 24.022C204.843 24.1648 204.958 24.2805 205.101 24.2805H205.831C206.608 24.2805 207.154 24.147 207.469 23.8799C207.783 23.6069 207.941 23.2597 207.941 22.8384C207.941 22.4289 207.804 22.0817 207.531 21.7968C207.258 21.5119 206.745 21.3695 205.991 21.3695H205.101C204.958 21.3695 204.843 21.4853 204.843 21.628V24.022Z" fill="#662583"/>
<path d="M213.478 25.2508C213.478 23.1203 214.071 21.4615 215.258 20.2746C216.445 19.0876 218.098 18.4941 220.217 18.4941C222.389 18.4941 224.062 19.0787 225.237 20.2479C226.412 21.4111 227 23.0431 227 25.144C227 26.6692 226.742 27.9215 226.226 28.9007C225.715 29.874 224.973 30.6336 224 31.1796C223.033 31.7197 221.825 31.9897 220.377 31.9897C218.905 31.9897 217.685 31.7553 216.718 31.2864C215.757 30.8176 214.976 30.0758 214.377 29.0609C213.777 28.0461 213.478 26.7761 213.478 25.2508ZM217.51 25.2686C217.51 26.5861 217.754 27.5327 218.24 28.1084C218.733 28.6841 219.401 28.9719 220.243 28.9719C221.11 28.9719 221.78 28.69 222.255 28.1262C222.73 27.5624 222.967 26.5505 222.967 25.0906C222.967 23.8621 222.718 22.966 222.22 22.4022C221.727 21.8324 221.056 21.5476 220.208 21.5476C219.395 21.5476 218.742 21.8354 218.249 22.4111C217.757 22.9867 217.51 23.9393 217.51 25.2686Z" fill="#662583"/>
</svg>
