<svg width="122" height="122" viewBox="0 0 122 122" fill="none" xmlns="http://www.w3.org/2000/svg">
<path d="M48.2182 71.2761C34.3357 66.0452 24.4546 52.5841 24.4546 36.8032C24.4546 16.4774 40.847 0 61.068 0C69.4907 0 77.2491 2.85881 83.4353 7.66377C81.7989 7.43712 80.1275 7.31998 78.4289 7.31998C58.3944 7.31998 42.1533 23.6153 42.1533 43.7165C42.1533 48.7651 43.1778 53.5736 45.0295 57.9441C44.8266 58.9764 44.7203 60.0434 44.7203 61.1354C44.7203 64.9635 46.0274 68.4853 48.2182 71.2761Z" fill="#A51A5D"/>
<path d="M114.703 78.3499C114.703 96.5493 101.121 111.646 83.3286 114.474C92.2204 107.708 97.9504 97.0798 97.9504 85.1277C97.9504 69.163 87.7271 55.5594 73.401 50.3692C70.6653 47.2165 66.7487 45.1227 62.3425 44.7814C66.918 42.8315 71.9695 41.75 77.2793 41.75C97.9481 41.75 114.703 58.1363 114.703 78.3499Z" fill="#FFDE00"/>
<path d="M77.3576 62.5102C77.3951 62.0565 77.4143 61.5975 77.4143 61.134C77.4143 56.8578 75.7834 52.9639 73.1116 50.0442C87.7503 55.0493 98.3556 68.6383 98.3556 84.8561C98.3556 105.369 81.6002 121.998 60.9315 121.998C52.739 121.998 45.1614 119.386 38.9983 114.954C40.4751 115.13 41.9784 115.22 43.503 115.22C64.1717 115.22 80.927 98.5914 80.927 78.0784C80.927 72.4728 79.6386 67.2138 77.3576 62.5102Z" fill="#32BA00"/>
<path d="M77.368 62.396C77.0313 66.8437 74.9267 70.7957 71.7576 73.5462C66.6513 87.8044 52.9956 98.0074 36.9516 98.0074C24.92 98.0074 14.2315 92.2694 7.48438 83.3864C9.88552 101.434 25.3692 115.358 44.1122 115.358C64.5197 115.358 81.0633 98.8507 81.0633 78.4874C81.0633 72.7182 79.7354 67.2585 77.368 62.396Z" fill="#5EBBE7"/>
<path d="M0 61.269C0 52.7032 2.92729 44.8197 7.83811 38.5601C7.56981 40.3523 7.43078 42.1867 7.43078 44.0534C7.43078 64.4167 23.9744 80.9245 44.382 80.9245C49.947 80.9245 55.2247 79.6969 59.958 77.4984C60.3246 77.5231 60.6946 77.5356 61.0675 77.5356C65.1877 77.5356 68.9519 76.0062 71.827 73.4825C66.7762 87.8432 53.0688 98.14 36.9512 98.14C16.5436 98.14 0 81.6323 0 61.269Z" fill="#322783"/>
<path d="M7.29517 44.3264C7.29517 25.893 20.8516 10.619 38.559 7.8894C29.969 14.6408 24.4535 25.1131 24.4535 36.8708C24.4535 52.6188 34.3478 66.0609 48.2718 71.3452C51.1278 74.9434 55.4598 77.3097 60.3485 77.5218C55.4815 79.8768 50.0185 81.1974 44.2464 81.1974C23.8388 81.1974 7.29517 64.6897 7.29517 44.3264Z" fill="#662583"/>
<path d="M122 61.1983C122 69.768 119.073 77.6535 114.166 83.9081C114.412 82.2013 114.539 80.4568 114.539 78.6829C114.539 58.3594 97.8671 41.8839 77.3015 41.8839C72.1243 41.8839 67.1939 42.928 62.7141 44.8148C62.1725 44.7604 61.6233 44.7326 61.0675 44.7326C57.1504 44.7326 53.5552 46.1148 50.7397 48.4197C55.9107 34.2644 69.3591 23.7893 85.1837 23.7893C105.487 23.7893 122 40.8748 122 61.1983Z" fill="#F29200"/>
<path d="M44.9836 58.1848C45.6974 54.2447 47.8142 50.7952 50.7959 48.3763C55.7428 34.1791 69.2101 23.9953 85.0482 23.9953C97.217 23.9953 107.986 30.0071 114.567 39.232C112.363 21.1725 97.0232 7.18652 78.428 7.18652C58.319 7.18652 42.0173 23.5425 42.0173 43.7186C42.0173 48.8576 43.0749 53.7487 44.9836 58.1848Z" fill="#E40613"/>
</svg>
