<svg width="172" height="14" viewBox="0 0 172 14" fill="none" xmlns="http://www.w3.org/2000/svg">
<path d="M0.981812 0.975227C0.981812 0.832442 1.09756 0.716693 1.24035 0.716693H12.9815C13.1243 0.716693 13.24 0.832442 13.24 0.975226V3.68072C13.24 3.8235 13.1243 3.93925 12.9815 3.93925H9.38577C9.24298 3.93925 9.12723 4.055 9.12723 4.19778V13.5086C9.12723 13.6514 9.01148 13.7672 8.8687 13.7672H5.35311C5.21033 13.7672 5.09458 13.6514 5.09458 13.5086V4.19778C5.09458 4.055 4.97883 3.93925 4.83605 3.93925H1.24035C1.09756 3.93925 0.981812 3.8235 0.981812 3.68072V0.975227Z" fill="#662583"/>
<path d="M15.0916 0.975226C15.0916 0.832442 15.2074 0.716693 15.3502 0.716693H18.8658C19.0085 0.716693 19.1243 0.832442 19.1243 0.975226V5.02493C19.1243 5.16772 19.24 5.28347 19.3828 5.28347H23.2723C23.4151 5.28347 23.5308 5.16772 23.5308 5.02493V0.975226C23.5308 0.832442 23.6466 0.716693 23.7894 0.716693H27.3227C27.4655 0.716693 27.5813 0.832442 27.5813 0.975226V13.5086C27.5813 13.6514 27.4655 13.7672 27.3227 13.7672H23.7894C23.6466 13.7672 23.5308 13.6514 23.5308 13.5086V8.74675C23.5308 8.60397 23.4151 8.48822 23.2723 8.48822H19.3828C19.24 8.48822 19.1243 8.60397 19.1243 8.74675V13.5086C19.1243 13.6514 19.0085 13.7672 18.8658 13.7672H15.3502C15.2074 13.7672 15.0916 13.6514 15.0916 13.5086V0.975226Z" fill="#662583"/>
<path d="M30.2519 0.975226C30.2519 0.832442 30.3677 0.716693 30.5104 0.716693H40.8005C40.9433 0.716693 41.0591 0.832442 41.0591 0.975226V3.24451C41.0591 3.3873 40.9433 3.50305 40.8005 3.50305H34.552C34.4092 3.50305 34.2935 3.6188 34.2935 3.76158V5.3187C34.2935 5.46148 34.4092 5.57723 34.552 5.57723H40.3109C40.4537 5.57723 40.5694 5.69298 40.5694 5.83577V7.98043C40.5694 8.12321 40.4537 8.23896 40.3109 8.23896H34.552C34.4092 8.23896 34.2935 8.35471 34.2935 8.49749V10.5531C34.2935 10.6959 34.4092 10.8117 34.552 10.8117H40.9964C41.1392 10.8117 41.2549 10.9274 41.2549 11.0702V13.5086C41.2549 13.6514 41.1392 13.7672 40.9964 13.7672H30.5104C30.3677 13.7672 30.2519 13.6514 30.2519 13.5086V0.975226Z" fill="#662583"/>
<path d="M49.5071 0.975226C49.5071 0.832442 49.6229 0.716693 49.7657 0.716693H56.2104C57.6704 0.716693 58.7624 1.06387 59.4864 1.75824C60.2164 2.4526 60.5814 3.44073 60.5814 4.72263C60.5814 6.04014 60.1837 7.06982 59.3885 7.81166C58.5992 8.5535 57.3914 8.92442 55.7653 8.92442H53.8161C53.6734 8.92442 53.5576 9.04017 53.5576 9.18295V13.5086C53.5576 13.6514 53.4419 13.7672 53.2991 13.7672H49.7657C49.6229 13.7672 49.5071 13.6514 49.5071 13.5086V0.975226ZM53.5576 6.02197C53.5576 6.16475 53.6734 6.2805 53.8161 6.2805H54.5457C55.3232 6.2805 55.8692 6.14697 56.1837 5.87991C56.4983 5.60691 56.6555 5.25973 56.6555 4.83836C56.6555 4.42886 56.519 4.08168 56.246 3.79682C55.973 3.51195 55.4597 3.36952 54.706 3.36952H53.8161C53.6734 3.36952 53.5576 3.48527 53.5576 3.62805V6.02197Z" fill="#662583"/>
<path d="M70.7847 11.7977C70.7521 11.688 70.6513 11.6129 70.5369 11.6129H66.3298C66.2151 11.6129 66.1141 11.6885 66.0818 11.7986L65.5587 13.5814C65.5264 13.6915 65.4254 13.7672 65.3106 13.7672H61.7559C61.5753 13.7672 61.4504 13.5867 61.5139 13.4177L66.2246 0.884268C66.2625 0.783456 66.3589 0.716693 66.4666 0.716693H70.5062C70.6139 0.716693 70.7103 0.783456 70.7482 0.884268L75.4589 13.4177C75.5225 13.5867 75.3975 13.7672 75.2169 13.7672H71.5635C71.4491 13.7672 71.3483 13.692 71.3157 13.5823L70.7847 11.7977ZM69.5341 8.79089C69.708 8.79089 69.8323 8.62263 69.7812 8.45639L68.6898 4.90588C68.6149 4.66224 68.2699 4.66254 68.1954 4.90631L67.1107 8.45682C67.06 8.62296 67.1843 8.79089 67.358 8.79089H69.5341Z" fill="#662583"/>
<path d="M77.0502 0.975226C77.0502 0.832442 77.166 0.716693 77.3088 0.716693H80.8333C80.976 0.716693 81.0918 0.832442 81.0918 0.975226V13.5086C81.0918 13.6514 80.976 13.7672 80.8333 13.7672H77.3088C77.166 13.7672 77.0502 13.6514 77.0502 13.5086V0.975226Z" fill="#662583"/>
<path d="M84.0206 0.975226C84.0206 0.832442 84.1363 0.716693 84.2791 0.716693H87.6494C87.735 0.716693 87.815 0.759025 87.8631 0.829757L92.2279 7.24245C92.3711 7.45285 92.7001 7.35149 92.7001 7.09698V0.975227C92.7001 0.832442 92.8159 0.716693 92.9587 0.716693H96.2428C96.3856 0.716693 96.5013 0.832442 96.5013 0.975226V13.5086C96.5013 13.6514 96.3856 13.7672 96.2428 13.7672H92.8367C92.7513 13.7672 92.6713 13.7249 92.6232 13.6543L88.285 7.29325C88.1417 7.08308 87.8129 7.18453 87.8129 7.43892V13.5086C87.8129 13.6514 87.6971 13.7672 87.5543 13.7672H84.2791C84.1363 13.7672 84.0206 13.6514 84.0206 13.5086V0.975226Z" fill="#662583"/>
<path d="M98.2639 0.975227C98.2639 0.832442 98.3797 0.716693 98.5225 0.716693H110.264C110.406 0.716693 110.522 0.832442 110.522 0.975226V3.68072C110.522 3.8235 110.406 3.93925 110.264 3.93925H106.668C106.525 3.93925 106.409 4.055 106.409 4.19778V13.5086C106.409 13.6514 106.294 13.7672 106.151 13.7672H102.635C102.492 13.7672 102.377 13.6514 102.377 13.5086V4.19778C102.377 4.055 102.261 3.93925 102.118 3.93925H98.5225C98.3797 3.93925 98.2639 3.8235 98.2639 3.68072V0.975227Z" fill="#662583"/>
<path d="M118.498 0.975226C118.498 0.832442 118.614 0.716693 118.757 0.716693H124.49C125.671 0.716693 126.623 0.876931 127.347 1.19741C128.077 1.51788 128.679 1.97782 129.154 2.57723C129.629 3.17664 129.973 3.87397 130.187 4.66922C130.401 5.46447 130.507 6.30721 130.507 7.19741C130.507 8.59208 130.347 9.67516 130.027 10.4467C129.712 11.2123 129.273 11.8562 128.709 12.3784C128.145 12.8948 127.54 13.239 126.893 13.4111C126.009 13.6485 125.208 13.7672 124.49 13.7672H118.757C118.614 13.7672 118.498 13.6514 118.498 13.5086V0.975226ZM122.79 3.67219C122.647 3.67219 122.531 3.78794 122.531 3.93072V10.5442C122.531 10.687 122.647 10.8028 122.79 10.8028H123.519C124.362 10.8028 124.961 10.7108 125.317 10.5268C125.674 10.3369 125.952 10.0105 126.154 9.54757C126.356 9.07872 126.457 8.32205 126.457 7.27753C126.457 5.89474 126.231 4.94815 125.78 4.43777C125.329 3.92738 124.582 3.67219 123.537 3.67219H122.79Z" fill="#662583"/>
<path d="M132.626 0.975226C132.626 0.832442 132.742 0.716693 132.885 0.716693H143.175C143.317 0.716693 143.433 0.832442 143.433 0.975226V3.24451C143.433 3.3873 143.317 3.50305 143.175 3.50305H136.926C136.783 3.50305 136.668 3.6188 136.668 3.76158V5.3187C136.668 5.46148 136.783 5.57723 136.926 5.57723H142.685C142.828 5.57723 142.944 5.69298 142.944 5.83577V7.98043C142.944 8.12321 142.828 8.23896 142.685 8.23896H136.926C136.783 8.23896 136.668 8.35471 136.668 8.49749V10.5531C136.668 10.6959 136.783 10.8117 136.926 10.8117H143.37C143.513 10.8117 143.629 10.9274 143.629 11.0702V13.5086C143.629 13.6514 143.513 13.7672 143.37 13.7672H132.885C132.742 13.7672 132.626 13.6514 132.626 13.5086V0.975226Z" fill="#662583"/>
<path d="M145.792 0.975226C145.792 0.832442 145.908 0.716693 146.051 0.716693H152.496C153.955 0.716693 155.047 1.06387 155.771 1.75824C156.501 2.4526 156.866 3.44073 156.866 4.72263C156.866 6.04014 156.469 7.06982 155.674 7.81166C154.884 8.5535 153.677 8.92442 152.05 8.92442H150.101C149.958 8.92442 149.843 9.04017 149.843 9.18295V13.5086C149.843 13.6514 149.727 13.7672 149.584 13.7672H146.051C145.908 13.7672 145.792 13.6514 145.792 13.5086V0.975226ZM149.843 6.02197C149.843 6.16475 149.958 6.2805 150.101 6.2805H150.831C151.608 6.2805 152.154 6.14697 152.469 5.87991C152.783 5.60691 152.941 5.25973 152.941 4.83836C152.941 4.42886 152.804 4.08168 152.531 3.79682C152.258 3.51195 151.745 3.36952 150.991 3.36952H150.101C149.958 3.36952 149.843 3.48527 149.843 3.62805V6.02197Z" fill="#662583"/>
<path d="M158.478 7.25083C158.478 5.12026 159.071 3.4615 160.258 2.27456C161.445 1.08761 163.098 0.494141 165.217 0.494141C167.389 0.494141 169.062 1.07871 170.237 2.24785C171.412 3.41106 172 5.04311 172 7.144C172 8.66923 171.742 9.92145 171.226 10.9007C170.715 11.874 169.973 12.6336 169 13.1796C168.033 13.7197 166.825 13.9897 165.377 13.9897C163.905 13.9897 162.685 13.7553 161.718 13.2864C160.757 12.8176 159.976 12.0758 159.377 11.0609C158.777 10.0461 158.478 8.77605 158.478 7.25083ZM162.51 7.26863C162.51 8.58614 162.754 9.53273 163.24 10.1084C163.733 10.6841 164.401 10.9719 165.243 10.9719C166.11 10.9719 166.78 10.69 167.255 10.1262C167.73 9.5624 167.967 8.55053 167.967 7.09059C167.967 5.8621 167.718 4.96596 167.22 4.40216C166.727 3.83242 166.056 3.54756 165.208 3.54756C164.395 3.54756 163.742 3.83539 163.249 4.41106C162.757 4.98673 162.51 5.93925 162.51 7.26863Z" fill="#662583"/>
</svg>
